<svg width="234" height="164" viewBox="0 0 234 164" fill="none" xmlns="http://www.w3.org/2000/svg">
<g clip-path="url(#clip0)">
<path d="M77.9238 19.343C77.533 19.3861 77.1564 19.5144 76.8205 19.7188C76.4846 19.9232 76.1977 20.1987 75.9798 20.526C75.762 20.8532 75.6186 21.2243 75.5597 21.613C75.5008 22.0016 75.5278 22.3985 75.6389 22.7756L67.8627 28.3314L72.4979 30.1149L79.1717 24.5656C79.7929 24.337 80.3087 23.8885 80.6213 23.3051C80.9339 22.7216 81.0216 22.0438 80.8678 21.4001C80.714 20.7563 80.3293 20.1914 79.7867 19.8122C79.2441 19.4331 78.5813 19.2661 77.9238 19.343L77.9238 19.343Z" fill="#FFB8B8"/>
<path d="M77.2006 27.7116L67.555 37.4152C66.2331 38.7365 64.4901 39.553 62.6286 39.7228L50.7099 40.8101C50.2729 40.8518 49.832 40.8055 49.4133 40.6739C48.9946 40.5424 48.6064 40.3282 48.2719 40.0441C47.809 39.6568 47.4649 39.1468 47.2789 38.5726C47.0929 37.9985 47.0727 37.3836 47.2205 36.7985C47.3684 36.2134 47.6783 35.6819 48.1147 35.265C48.5511 34.8481 49.0963 34.5627 49.6876 34.4417L61.864 31.8495L72.9496 23.6792C73.1037 23.5925 73.2778 23.5475 73.4547 23.5489C73.6315 23.5502 73.805 23.5977 73.9578 23.6867L76.9725 26.1559C77.1539 26.2553 77.2996 26.409 77.3892 26.5953C77.4787 26.7817 77.5077 26.9915 77.472 27.1952C77.4368 27.3911 77.3421 27.5714 77.2006 27.7116Z" fill="#2F2E41"/>
<path d="M192.845 32.9267C192.917 32.2643 192.783 31.5958 192.462 31.0122C192.14 30.4285 191.647 29.958 191.048 29.6645L131.02 0.330159C130.638 0.143433 130.223 0.033708 129.799 0.00725384C129.375 -0.0192003 128.95 0.0381319 128.548 0.175978C128.146 0.313824 127.775 0.529485 127.457 0.810646C127.138 1.09181 126.878 1.43296 126.691 1.81463L126.69 1.81688L104.175 47.8743C103.8 48.6457 103.745 49.5347 104.024 50.3462C104.303 51.1578 104.892 51.8257 105.662 52.2036L165.691 81.538C166.462 81.9137 167.351 81.9682 168.163 81.6895C168.975 81.4108 169.643 80.8217 170.021 80.0513L192.535 33.9939C192.7 33.6588 192.805 33.2977 192.845 32.9267Z" fill="#F2F2F2"/>
<path d="M157.678 135.151H79.7883C78.8077 135.15 77.8676 134.76 77.1742 134.067C76.4808 133.374 76.0908 132.434 76.0897 131.453V25.7318C76.0908 24.7513 76.4808 23.8113 77.1742 23.1181C77.8676 22.4248 78.8077 22.0348 79.7883 22.0337H157.678C158.659 22.0348 159.599 22.4248 160.292 23.1181C160.986 23.8113 161.376 24.7513 161.377 25.7318V131.453C161.376 132.434 160.986 133.374 160.292 134.067C159.599 134.76 158.659 135.15 157.678 135.151Z" fill="white"/>
<path d="M100.447 53.5586C103.254 53.5586 105.529 51.2839 105.529 48.4778C105.529 45.6717 103.254 43.397 100.447 43.397C97.6409 43.397 95.3657 45.6717 95.3657 48.4778C95.3657 51.2839 97.6409 53.5586 100.447 53.5586Z" fill="#E6E6E6"/>
<path d="M92.7022 62.3642C93.4203 62.7723 94.1718 63.1186 94.9486 63.3993L95.0858 63.4468C96.6504 63.9961 98.297 64.2757 99.9553 64.2737C100.289 64.2737 100.61 64.2621 100.911 64.2394C101.641 64.1946 102.368 64.0945 103.083 63.9399C103.476 63.8541 103.867 63.7514 104.246 63.6352C104.338 63.6082 104.423 63.5817 104.515 63.5526C106.059 63.0522 107.51 62.3006 108.809 61.3283C108.704 61.1311 108.59 60.9393 108.467 60.7536C107.799 59.7332 106.887 58.8955 105.813 58.3162C104.74 57.7369 103.539 57.4344 102.32 57.436H99.645C98.2343 57.4363 96.8534 57.842 95.6667 58.6047C94.4801 59.3674 93.5377 60.4551 92.9518 61.7381C92.8581 61.9425 92.7748 62.1515 92.7022 62.3642Z" fill="#E6E6E6"/>
<path d="M102.172 63.8134C102.001 63.826 101.837 63.8836 101.696 63.9804C102.413 63.9358 103.125 63.8369 103.828 63.6846L102.172 63.8134Z" fill="#2F2E41"/>
<path d="M100.755 34.6899C97.4826 34.6903 94.3014 35.7708 91.7055 37.7639C89.1097 39.7569 87.2445 42.551 86.3995 45.7124C85.5544 48.8737 85.7768 52.2256 87.032 55.2477C88.2873 58.2698 90.5052 60.7931 93.3415 62.426C94.0945 62.8619 94.8848 63.2297 95.7032 63.525L95.8423 63.5732C97.421 64.1273 99.0823 64.4095 100.755 64.4075C101.079 64.4075 101.403 64.3968 101.721 64.3727C102.458 64.3274 103.19 64.2264 103.911 64.0705C104.315 63.9823 104.711 63.878 105.086 63.763C105.176 63.7363 105.262 63.7095 105.356 63.6801C108.719 62.5847 111.582 60.3255 113.429 57.3087C115.276 54.2918 115.986 50.7153 115.432 47.2218C114.877 43.7284 113.095 40.5472 110.405 38.2501C107.715 35.953 104.293 34.6906 100.755 34.6899L100.755 34.6899ZM109.378 60.6798C108.096 61.6689 106.653 62.4297 105.112 62.9287C105.029 62.9554 104.944 62.9822 104.858 63.0089C104.502 63.1185 104.128 63.2148 103.743 63.2977C103.06 63.4467 102.367 63.5432 101.67 63.5865C101.368 63.6079 101.06 63.6186 100.755 63.6186C99.1717 63.6196 97.5992 63.3528 96.1044 62.8297L95.9734 62.7843C95.1594 62.4918 94.3749 62.1229 93.6304 61.6825C91.0376 60.1563 89.0028 57.8389 87.8249 55.0707C86.647 52.3025 86.3883 49.2295 87.0866 46.3034C87.785 43.3773 89.4036 40.7523 91.7047 38.8141C94.0058 36.8759 96.868 35.7268 99.8707 35.5356C102.873 35.3444 105.858 36.1212 108.387 37.7518C110.915 39.3824 112.854 41.7809 113.918 44.5948C114.982 47.4088 115.115 50.4897 114.298 53.3849C113.481 56.2801 111.756 58.837 109.378 60.6797V60.6798Z" fill="#CCCCCC"/>
<path d="M157.678 135.151H79.7883C78.8077 135.15 77.8676 134.76 77.1742 134.067C76.4808 133.374 76.0908 132.434 76.0897 131.453V25.7318C76.0908 24.7513 76.4808 23.8113 77.1742 23.1181C77.8676 22.4248 78.8077 22.0348 79.7883 22.0337H157.678C158.659 22.0348 159.599 22.4248 160.292 23.1181C160.986 23.8113 161.376 24.7513 161.377 25.7318V131.453C161.376 132.434 160.986 133.374 160.292 134.067C159.599 134.76 158.659 135.15 157.678 135.151ZM79.7883 22.4688C78.9231 22.4697 78.0936 22.8138 77.4818 23.4256C76.8699 24.0373 76.5258 24.8667 76.5248 25.7318V131.453C76.5258 132.318 76.8699 133.148 77.4818 133.759C78.0936 134.371 78.9231 134.715 79.7883 134.716H157.678C158.543 134.715 159.373 134.371 159.985 133.759C160.597 133.148 160.941 132.318 160.942 131.453V25.7318C160.941 24.8667 160.597 24.0373 159.985 23.4256C159.373 22.8138 158.543 22.4697 157.678 22.4688L79.7883 22.4688Z" fill="#CCCCCC"/>
<path d="M142.6 49.4916H120.559C120.097 49.4916 119.654 49.3079 119.327 48.9809C119 48.654 118.816 48.2106 118.816 47.7482C118.816 47.2859 119 46.8424 119.327 46.5155C119.654 46.1886 120.097 46.0049 120.559 46.0049H142.6C143.062 46.0049 143.506 46.1886 143.833 46.5155C144.16 46.8424 144.343 47.2859 144.343 47.7482C144.343 48.2106 144.16 48.654 143.833 48.9809C143.506 49.3079 143.062 49.4916 142.6 49.4916Z" fill="#E6E6E6"/>
<path d="M149.792 55.3753H120.559C120.097 55.3753 119.654 55.1917 119.327 54.8647C119 54.5378 118.816 54.0944 118.816 53.632C118.816 53.1696 119 52.7262 119.327 52.3993C119.654 52.0723 120.097 51.8887 120.559 51.8887H149.792C150.255 51.8887 150.698 52.0723 151.025 52.3993C151.352 52.7262 151.536 53.1696 151.536 53.632C151.536 54.0944 151.352 54.5378 151.025 54.8647C150.698 55.1917 150.255 55.3753 149.792 55.3753Z" fill="#E6E6E6"/>
<path d="M142.568 77.9417H87.6744C87.212 77.9417 86.7685 77.7581 86.4415 77.4311C86.1145 77.1042 85.9308 76.6608 85.9308 76.1984C85.9308 75.7361 86.1145 75.2926 86.4415 74.9657C86.7685 74.6388 87.212 74.4551 87.6744 74.4551H142.568C143.03 74.4551 143.473 74.6388 143.8 74.9657C144.127 75.2926 144.311 75.7361 144.311 76.1984C144.311 76.6608 144.127 77.1042 143.8 77.4311C143.473 77.7581 143.03 77.9417 142.568 77.9417Z" fill="#E6E6E6"/>
<path d="M149.76 83.826H87.6744C87.212 83.826 86.7685 83.6424 86.4415 83.3154C86.1145 82.9885 85.9308 82.5451 85.9308 82.0827C85.9308 81.6203 86.1145 81.1769 86.4415 80.85C86.7685 80.523 87.212 80.3394 87.6744 80.3394H149.76C150.222 80.3394 150.666 80.523 150.993 80.85C151.32 81.1769 151.504 81.6203 151.504 82.0827C151.504 82.5451 151.32 82.9885 150.993 83.3154C150.666 83.6424 150.222 83.826 149.76 83.826Z" fill="#E6E6E6"/>
<path d="M142.568 97.349H87.6744C87.212 97.349 86.7685 97.1653 86.4415 96.8384C86.1145 96.5114 85.9308 96.068 85.9308 95.6056C85.9308 95.1433 86.1145 94.6999 86.4415 94.3729C86.7685 94.046 87.212 93.8623 87.6744 93.8623H142.568C143.03 93.8623 143.473 94.046 143.8 94.3729C144.127 94.6999 144.311 95.1433 144.311 95.6056C144.311 96.068 144.127 96.5114 143.8 96.8384C143.473 97.1653 143.03 97.349 142.568 97.349Z" fill="#E6E6E6"/>
<path d="M149.76 103.233H87.6744C87.212 103.233 86.7685 103.049 86.4415 102.722C86.1145 102.395 85.9308 101.952 85.9308 101.489C85.9308 101.027 86.1145 100.584 86.4415 100.257C86.7685 99.9298 87.212 99.7461 87.6744 99.7461H149.76C150.222 99.7461 150.666 99.9298 150.993 100.257C151.32 100.584 151.504 101.027 151.504 101.489C151.504 101.952 151.32 102.395 150.993 102.722C150.666 103.049 150.222 103.233 149.76 103.233Z" fill="#E6E6E6"/>
<path d="M142.568 116.756H87.6744C87.212 116.756 86.7685 116.572 86.4415 116.245C86.1145 115.918 85.9308 115.475 85.9308 115.012C85.9308 114.55 86.1145 114.107 86.4415 113.78C86.7685 113.453 87.212 113.269 87.6744 113.269H142.568C143.03 113.269 143.473 113.453 143.8 113.78C144.127 114.107 144.311 114.55 144.311 115.012C144.311 115.475 144.127 115.918 143.8 116.245C143.473 116.572 143.03 116.756 142.568 116.756Z" fill="#E6E6E6"/>
<path d="M149.76 122.64H87.6744C87.212 122.64 86.7685 122.456 86.4415 122.129C86.1145 121.802 85.9308 121.359 85.9308 120.896C85.9308 120.434 86.1145 119.99 86.4415 119.663C86.7685 119.336 87.212 119.153 87.6744 119.153H149.76C150.222 119.153 150.665 119.337 150.992 119.664C151.318 119.991 151.501 120.434 151.501 120.896C151.501 121.358 151.318 121.801 150.992 122.128C150.665 122.455 150.222 122.639 149.76 122.64Z" fill="#E6E6E6"/>
<path d="M190.171 63.144C190.242 62.4815 190.108 61.8131 189.787 61.2294C189.465 60.6458 188.972 60.1753 188.374 59.8818L128.345 30.5474C127.964 30.3607 127.549 30.251 127.125 30.2245C126.701 30.1981 126.275 30.2554 125.873 30.3933C125.471 30.5311 125.101 30.7468 124.782 31.0279C124.463 31.3091 124.203 31.6502 124.016 32.0319L124.015 32.0342L101.501 78.0915C101.125 78.863 101.071 79.752 101.349 80.5635C101.628 81.3751 102.217 82.043 102.988 82.4209L163.016 111.755C163.788 112.131 164.677 112.185 165.489 111.907C166.3 111.628 166.968 111.039 167.346 110.269L189.861 64.2112C190.025 63.8761 190.13 63.515 190.171 63.144Z" fill="white"/>
<path d="M190.171 63.144C190.242 62.4815 190.108 61.8131 189.787 61.2294C189.465 60.6458 188.972 60.1753 188.374 59.8818L128.345 30.5474C127.964 30.3607 127.549 30.251 127.125 30.2245C126.701 30.1981 126.275 30.2554 125.873 30.3933C125.471 30.5311 125.101 30.7468 124.782 31.0279C124.463 31.3091 124.203 31.6502 124.016 32.0319L124.015 32.0342L101.501 78.0915C101.125 78.863 101.071 79.752 101.349 80.5635C101.628 81.3751 102.217 82.043 102.988 82.4209L163.016 111.755C163.788 112.131 164.677 112.185 165.489 111.907C166.3 111.628 166.968 111.039 167.346 110.269L189.861 64.2112C190.025 63.8761 190.13 63.515 190.171 63.144ZM167.004 110.101C166.671 110.781 166.081 111.301 165.365 111.547C164.649 111.793 163.864 111.745 163.183 111.413L103.155 82.0788C102.475 81.7455 101.955 81.1561 101.709 80.44C101.463 79.7239 101.511 78.9394 101.843 78.2588L124.358 32.2014C124.691 31.5215 125.28 31.0016 125.997 30.7557C126.713 30.5098 127.497 30.5579 128.178 30.8896L188.207 60.2239C188.887 60.5572 189.407 61.1466 189.653 61.8627C189.898 62.5789 189.85 63.3633 189.519 64.044L167.004 110.101Z" fill="#3F3D56"/>
<path d="M183.623 65.2382L167.902 97.3986C167.797 97.6133 167.611 97.7776 167.385 97.8553C167.159 97.9329 166.912 97.9177 166.697 97.8129H166.697L112.093 71.1293C112.054 71.1106 112.017 71.0886 111.981 71.0635C111.802 70.9417 111.673 70.7594 111.618 70.5501C111.562 70.3407 111.584 70.1184 111.679 69.9239L127.4 37.7634C127.452 37.6571 127.524 37.562 127.613 37.4837C127.702 37.4053 127.805 37.3452 127.917 37.3067C128.029 37.2683 128.147 37.2522 128.265 37.2595C128.383 37.2668 128.499 37.2973 128.605 37.3492L183.209 64.0328C183.424 64.1376 183.588 64.3234 183.666 64.5494C183.743 64.7754 183.728 65.0229 183.623 65.2376V65.2377L183.623 65.2382Z" fill="#E6E6E6"/>
<path d="M135.685 63.605C140.052 63.605 143.593 60.0651 143.593 55.6985C143.593 51.3319 140.052 47.792 135.685 47.792C131.317 47.792 127.777 51.3319 127.777 55.6985C127.777 60.0651 131.317 63.605 135.685 63.605Z" fill="#FF8400"/>
<path d="M147.263 88.476L112.41 71.4441C112.366 71.4234 112.324 71.3986 112.285 71.3702L142.724 50.8776C142.912 50.749 143.13 50.6725 143.357 50.6558C143.584 50.6391 143.811 50.683 144.015 50.7828C144.219 50.8826 144.394 51.0349 144.52 51.2241C144.646 51.4132 144.72 51.6325 144.733 51.8594L146.431 76.4233L146.513 77.599L147.263 88.476Z" fill="#3F3D56"/>
<path opacity="0.2" d="M147.263 88.4759L135.364 82.6607L145.352 77.0317L146.072 76.6263L146.431 76.4233L146.513 77.5989L147.263 88.4759Z" fill="black"/>
<path d="M166.669 97.9591L136.524 83.228L146.513 77.5989L147.232 77.1932L160.249 69.8572C161.102 69.3765 162.324 69.9181 162.602 70.8378C162.62 70.9003 162.634 70.9638 162.644 71.0281L166.669 97.9591Z" fill="#3F3D56"/>
<path d="M73.6577 100.766L76.9365 100.766L78.4965 88.1206L73.6569 88.1209L73.6577 100.766Z" fill="#FFB8B8"/>
<path d="M72.8213 99.6961L79.2787 99.6958H79.279C79.8194 99.6958 80.3545 99.8022 80.8538 100.009C81.3531 100.216 81.8067 100.519 82.1889 100.901C82.571 101.283 82.8741 101.736 83.0809 102.236C83.2877 102.735 83.3942 103.27 83.3942 103.81V103.944L72.8215 103.944L72.8213 99.6961Z" fill="#2F2E41"/>
<path d="M48.171 98.679L51.5683 99.3432L55.7481 86.5582L50.7343 85.5776L48.171 98.679Z" fill="#FFB8B8"/>
<path d="M47.5216 97.4004L54.2119 98.7088L54.2121 98.7089C54.772 98.8184 55.3049 99.0371 55.7802 99.3525C56.2556 99.6679 56.6642 100.074 56.9826 100.547C57.3011 101.02 57.5232 101.552 57.6362 102.111C57.7493 102.67 57.7511 103.246 57.6415 103.806L57.6144 103.944L46.6605 101.802L47.5216 97.4004Z" fill="#2F2E41"/>
<path d="M78.4281 57.1456C78.3171 56.7684 78.1248 56.4202 77.8646 56.1255C77.6044 55.8307 77.2828 55.5966 76.9223 55.4396C76.5619 55.2826 76.1714 55.2065 75.7783 55.2167C75.3853 55.2269 74.9992 55.3231 74.6474 55.4986L67.8128 48.8188L66.8698 53.6943L73.5046 59.29C73.8387 59.8615 74.3708 60.2905 75.0001 60.4959C75.6294 60.7012 76.3122 60.6687 76.9191 60.4043C77.5259 60.14 78.0148 59.6622 78.2929 59.0616C78.571 58.461 78.6192 57.7793 78.4281 57.1456Z" fill="#FFB8B8"/>
<path d="M53.0708 22.7638C56.6988 22.7638 59.6398 19.8232 59.6398 16.1959C59.6398 12.5685 56.6988 9.62793 53.0708 9.62793C49.4429 9.62793 46.5018 12.5685 46.5018 16.1959C46.5018 19.8232 49.4429 22.7638 53.0708 22.7638Z" fill="#FFB8B8"/>
<path d="M51.6914 22.8643C52.0405 23.017 52.7552 20.2364 52.435 19.6802C51.9589 18.8531 51.987 18.8591 51.671 18.3119C51.3549 17.7647 51.2842 17.0157 51.6935 16.5342C52.1028 16.0528 53.05 16.1166 53.2368 16.7203C53.1166 15.5737 54.251 14.652 55.3746 14.393C56.4982 14.134 57.6834 14.2948 58.8132 14.0643C60.1244 13.7968 61.4886 12.6979 60.9655 11.2563C60.8757 11.0162 60.7413 10.7954 60.5693 10.6054C59.9649 9.92588 59.1194 9.63574 58.2928 9.3552C56.573 8.77159 54.8062 8.18064 52.9912 8.24507C51.4957 8.32325 50.0555 8.8356 48.8468 9.71943C47.638 10.6033 46.7132 11.8202 46.1854 13.2214C46.0604 13.5719 45.9635 13.9319 45.8957 14.2978C45.2727 17.647 47.2179 20.9505 50.3772 22.2258L51.6914 22.8643Z" fill="#2F2E41"/>
<path d="M50.0786 58.9446C49.9111 58.8433 49.7768 58.6953 49.6923 58.5187C49.6078 58.3421 49.5768 58.1447 49.6031 57.9507L46.6389 43.2694L43.6342 32.002H43.6342C43.3044 30.7674 43.404 29.4574 43.9168 28.2868C44.4295 27.1162 45.325 26.1547 46.4563 25.5599L48.4427 23.6807L52.7761 25.5473L54.8352 27.6407C56.3121 28.3597 57.6223 29.3797 58.6814 30.6352C59.7405 31.8906 60.5251 33.3538 60.9849 34.9305L64.2875 46.23L71.9147 57.5754C72.042 57.7645 72.1016 57.9911 72.0837 58.2184C72.0657 58.4456 71.9713 58.6601 71.8159 58.8268C70.7548 59.968 50.0786 58.9446 50.0786 58.9446Z" fill="#2F2E41"/>
<path d="M70.0611 57.9016L58.8144 50.1093C57.2815 49.0398 56.1717 47.4673 55.678 45.6648L52.5166 34.1235C52.3989 33.7007 52.3672 33.2586 52.4233 32.8234C52.4794 32.3881 52.6222 31.9685 52.8432 31.5894C53.1434 31.0658 53.5852 30.6376 54.1179 30.3538C54.6506 30.07 55.2526 29.9423 55.8546 29.9852C56.4567 30.0281 57.0344 30.2399 57.5215 30.5963C58.0085 30.9528 58.3851 31.4393 58.608 32.0002L63.2964 43.531L73.2859 53.0098C73.3984 53.1463 73.4731 53.3098 73.5029 53.4841C73.5326 53.6584 73.5162 53.8374 73.4554 54.0034L71.5529 57.4041C71.4869 57.6 71.3611 57.7704 71.1933 57.8913C71.0255 58.0122 70.824 58.0775 70.6172 58.0781C70.4181 58.0778 70.2239 58.0162 70.0611 57.9016Z" fill="#2F2E41"/>
<path d="M46.6962 96.7219C46.6042 96.5901 46.5453 96.4382 46.5245 96.2789C46.5037 96.1196 46.5215 95.9576 46.5765 95.8066L51.7795 76.8953L52.1641 58.365L69.6788 57.1639L69.7638 57.1582L75.0392 66.7179C76.6908 69.7068 77.7019 73.0067 78.008 76.4077L79.7465 95.4553C79.7728 95.7143 79.6964 95.9731 79.5338 96.1764C79.3713 96.3796 79.1355 96.511 78.8771 96.5422L73.596 97.0444C73.3415 97.0754 73.085 97.0057 72.8812 96.8503C72.6774 96.6949 72.5424 96.466 72.5051 96.2124L70.3606 76.8564L62.6446 63.8213L60.0545 77.5445L54.6886 96.4958C54.6184 96.6849 54.4924 96.8483 54.3272 96.9641C54.162 97.08 53.9654 97.1429 53.7636 97.1444L47.5051 97.147C47.3458 97.1478 47.1887 97.1094 47.0476 97.0353C46.9066 96.9612 46.7859 96.8536 46.6962 96.7219Z" fill="#2F2E41"/>
<path d="M180.806 158.919H48.8261C46.4861 158.917 44.2426 157.986 42.588 156.332C40.9334 154.677 40.0026 152.434 40 150.095V77.6259C40.0026 75.2863 40.9334 73.0432 42.588 71.3889C44.2426 69.7345 46.4861 68.8039 48.8261 68.8013H65.0079C67.2035 68.7994 69.3206 69.6176 70.9441 71.0956L88.4923 83.6241C89.6364 84.6694 91.1305 85.2485 92.6804 85.2471H181.626C182.796 85.2471 183.954 85.4797 185.033 85.9313C186.112 86.3829 187.091 87.0444 187.912 87.8776C188.733 88.7107 189.381 89.6988 189.817 90.7843C190.252 91.8698 190.468 93.0311 190.451 94.2007L189.631 150.224C189.588 152.538 188.64 154.744 186.991 156.369C185.342 157.994 183.122 158.91 180.806 158.919Z" fill="white"/>
<path d="M179.634 154.64H49.6069C48.478 154.639 47.3958 154.19 46.5976 153.392C45.7994 152.594 45.3504 151.512 45.3491 150.383V76.7297C45.3504 75.6011 45.7994 74.519 46.5976 73.7209C47.3958 72.9229 48.478 72.4739 49.6069 72.4727C50.6053 72.4738 51.5625 72.8708 52.2686 73.5767C52.9746 74.2826 53.3717 75.2397 53.3728 76.238V145.303C53.374 146.36 53.7948 147.374 54.5429 148.122C55.2909 148.87 56.3052 149.291 57.3631 149.292H179.195C179.8 149.285 180.39 149.482 180.871 149.849C181.351 150.217 181.695 150.735 181.847 151.321C182.016 151.877 181.995 152.473 181.787 153.015C181.578 153.557 181.193 154.014 180.695 154.312C180.378 154.518 180.011 154.632 179.634 154.64Z" fill="#F2F2F2"/>
<path d="M115.804 119.269L115.461 118.927C115.39 118.861 115.349 118.769 115.346 118.672C115.342 118.574 115.378 118.48 115.444 118.409C115.45 118.403 115.455 118.398 115.461 118.392L118.465 115.386C118.498 115.351 118.537 115.323 118.581 115.303C118.625 115.283 118.672 115.272 118.72 115.271C118.768 115.269 118.816 115.277 118.861 115.294C118.906 115.311 118.948 115.337 118.983 115.369C118.989 115.375 118.994 115.381 119 115.386L122.003 118.389C122.038 118.423 122.067 118.464 122.086 118.509C122.105 118.553 122.116 118.602 122.117 118.65C122.118 118.699 122.109 118.748 122.091 118.793C122.073 118.839 122.046 118.88 122.013 118.915L122.003 118.924L121.661 119.267C121.627 119.302 121.587 119.33 121.542 119.349C121.497 119.369 121.449 119.379 121.4 119.38C121.351 119.381 121.303 119.372 121.257 119.354C121.212 119.336 121.17 119.31 121.135 119.276L121.126 119.267L119.35 117.395V121.836C119.351 121.885 119.341 121.933 119.323 121.978C119.305 122.023 119.278 122.064 119.244 122.098C119.21 122.133 119.169 122.16 119.125 122.179C119.08 122.198 119.032 122.208 118.984 122.208L118.981 122.208H118.486C118.388 122.208 118.293 122.169 118.223 122.099C118.154 122.03 118.115 121.935 118.115 121.836V117.4L116.339 119.272C116.27 119.343 116.176 119.383 116.077 119.384C115.979 119.385 115.883 119.347 115.813 119.279L115.804 119.269Z" fill="#FF8400"/>
<path d="M118.727 112.656C119.932 112.656 121.111 113.014 122.113 113.683C123.116 114.353 123.897 115.305 124.358 116.418C124.82 117.532 124.94 118.757 124.705 119.94C124.47 121.122 123.889 122.208 123.037 123.06C122.185 123.912 121.098 124.493 119.916 124.728C118.734 124.963 117.508 124.842 116.394 124.381C115.281 123.92 114.329 123.139 113.659 122.136C112.989 121.134 112.632 119.956 112.632 118.751C112.633 117.135 113.276 115.585 114.418 114.443C115.561 113.3 117.111 112.658 118.727 112.656ZM118.727 111.854C117.363 111.854 116.029 112.258 114.895 113.016C113.76 113.774 112.876 114.851 112.354 116.111C111.832 117.372 111.696 118.758 111.962 120.096C112.228 121.434 112.885 122.663 113.85 123.627C114.814 124.592 116.043 125.249 117.381 125.515C118.719 125.781 120.106 125.644 121.367 125.122C122.627 124.6 123.704 123.716 124.462 122.582C125.22 121.448 125.625 120.115 125.625 118.751C125.625 116.921 124.898 115.167 123.604 113.874C122.311 112.581 120.556 111.854 118.727 111.854Z" fill="#3F3D56"/>
<path d="M180.806 158.919H48.8261C46.4861 158.917 44.2426 157.986 42.588 156.332C40.9334 154.677 40.0026 152.434 40 150.095V77.6259C40.0026 75.2863 40.9334 73.0432 42.588 71.3889C44.2426 69.7345 46.4861 68.8039 48.8261 68.8013H65.0079C67.2035 68.7994 69.3206 69.6176 70.9441 71.0956L88.4923 83.6241C89.6364 84.6694 91.1305 85.2485 92.6804 85.2471H181.626C182.796 85.2471 183.954 85.4797 185.033 85.9313C186.112 86.3829 187.091 87.0444 187.912 87.8776C188.733 88.7107 189.381 89.6988 189.817 90.7843C190.252 91.8698 190.468 93.0311 190.451 94.2007L189.631 150.224C189.588 152.538 188.64 154.744 186.991 156.369C185.342 157.994 183.122 158.91 180.806 158.919ZM48.8261 69.3361C46.6279 69.3386 44.5204 70.2128 42.9661 71.7669C41.4117 73.321 40.5374 75.4281 40.5349 77.6259V150.095C40.5374 152.292 41.4117 154.4 42.9661 155.954C44.5204 157.508 46.6279 158.382 48.8261 158.384H180.806C182.982 158.375 185.067 157.516 186.616 155.989C188.166 154.463 189.056 152.39 189.097 150.216L189.916 94.1929C189.932 93.0942 189.73 92.0032 189.32 90.9835C188.911 89.9638 188.303 89.0356 187.531 88.253C186.76 87.4703 185.84 86.8488 184.827 86.4246C183.813 86.0004 182.725 85.7819 181.626 85.782H92.6804C91.0027 85.7834 89.3849 85.1586 88.1437 84.0301L70.5956 71.5015C69.0691 70.1069 67.0757 69.3343 65.0079 69.3361H48.8261Z" fill="#3F3D56"/>
<path d="M151.992 160.33H148.713L147.688 147.685L151.992 147.685L151.992 160.33Z" fill="#FFB8B8"/>
<path d="M152.828 163.508L142.255 163.508V163.374C142.255 162.834 142.361 162.299 142.568 161.8C142.775 161.3 143.078 160.847 143.46 160.465C143.842 160.083 144.296 159.78 144.795 159.573C145.295 159.366 145.83 159.26 146.37 159.26H146.37L152.828 159.26L152.828 163.508Z" fill="#2F2E41"/>
<path d="M188.633 160.33H185.354L183.794 147.685L188.634 147.685L188.633 160.33Z" fill="#FFB8B8"/>
<path d="M189.469 163.508L178.896 163.508V163.374C178.896 162.834 179.003 162.299 179.21 161.8C179.417 161.3 179.72 160.847 180.102 160.465C180.484 160.083 180.938 159.78 181.437 159.573C181.936 159.366 182.471 159.26 183.012 159.26H183.012L189.469 159.26L189.469 163.508Z" fill="#2F2E41"/>
<path d="M217.851 121.238C218.304 120.708 218.559 120.037 218.573 119.34C218.588 118.643 218.36 117.962 217.929 117.414C217.842 117.309 217.746 117.211 217.643 117.122L220.113 108.005L215.996 109.371L214.282 117.819C213.998 118.34 213.872 118.932 213.92 119.524C213.968 120.115 214.189 120.68 214.554 121.148C214.745 121.4 214.991 121.607 215.272 121.751C215.554 121.896 215.865 121.976 216.181 121.985C216.498 121.993 216.812 121.931 217.101 121.802C217.39 121.672 217.647 121.48 217.851 121.238Z" fill="#FFB8B8"/>
<path d="M217.693 115.63C217.641 115.63 217.59 115.626 217.539 115.619L215.394 115.295C215.227 115.267 215.069 115.202 214.929 115.105C214.79 115.009 214.674 114.883 214.588 114.737C214.402 114.426 214.336 114.058 214.4 113.702L217.076 98.758L215.261 89.1576C214.911 87.31 215.814 85.444 217.361 84.817C217.82 84.6293 218.32 84.5638 218.812 84.6268C219.304 84.6898 219.771 84.8791 220.168 85.1764C220.596 85.5006 220.951 85.9112 221.21 86.3815C221.469 86.8518 221.626 87.3713 221.671 87.9063L222.956 100.147L222.94 100.201L218.806 114.707C218.747 114.962 218.606 115.189 218.405 115.356C218.204 115.522 217.954 115.619 217.693 115.63Z" fill="#FF8400"/>
<path d="M217.06 79.5265C220.688 79.5265 223.629 76.5859 223.629 72.9585C223.629 69.3312 220.688 66.3906 217.06 66.3906C213.432 66.3906 210.491 69.3312 210.491 72.9585C210.491 76.5859 213.432 79.5265 217.06 79.5265Z" fill="#FFB8B8"/>
<path d="M213.696 103.489C213.533 103.489 213.371 103.459 213.218 103.4L202.835 99.4071C202.554 99.2999 202.317 99.1008 202.164 98.8421C202.01 98.5834 201.949 98.2805 201.99 97.9824L202.407 94.8556C202.159 93.7471 202.182 92.5955 202.473 91.4976C202.764 90.3998 203.314 89.3879 204.078 88.5473L204.331 88.2692L207.403 82.6685C207.611 82.2891 207.892 81.9546 208.23 81.6843C208.568 81.414 208.956 81.2133 209.372 81.0938C209.788 80.9743 210.224 80.9383 210.654 80.9879C211.084 81.0375 211.5 81.1718 211.877 81.3829L217.302 84.4138C218.016 84.8121 218.555 85.4632 218.813 86.2389C219.543 88.4349 219.489 90.8161 218.66 92.9767L214.946 102.632C214.848 102.884 214.676 103.1 214.453 103.253C214.23 103.406 213.967 103.488 213.696 103.489Z" fill="#FF8400"/>
<path d="M186.486 157.225L186.472 157.222C186.295 157.188 186.126 157.119 185.977 157.018C185.827 156.917 185.7 156.787 185.602 156.636C185.504 156.484 185.438 156.315 185.407 156.137C185.376 155.959 185.382 155.777 185.423 155.602L193.379 120.828C194.682 115.315 196.482 109.932 198.756 104.744L202.141 97.0273L214.772 102.793L216.575 106.091C217.981 109.764 218.704 113.663 218.709 117.595L231.543 155.202C231.605 155.386 231.627 155.581 231.607 155.774C231.587 155.967 231.525 156.153 231.425 156.319C231.326 156.486 231.191 156.629 231.031 156.738C230.871 156.848 230.689 156.921 230.497 156.953L223.471 156.873C223.405 156.885 223.338 156.891 223.27 156.89C223.004 156.89 222.744 156.811 222.523 156.661C222.303 156.512 222.133 156.299 222.034 156.052L207.363 118.03C207.342 117.979 207.307 117.936 207.261 117.907C207.215 117.877 207.161 117.862 207.106 117.864C207.053 117.865 207.001 117.882 206.958 117.914C206.914 117.945 206.882 117.989 206.865 118.04L192.944 156.251C192.837 156.548 192.628 156.798 192.355 156.955C192.081 157.112 191.76 157.167 191.45 157.11L186.486 157.225Z" fill="#2F2E41"/>
<path d="M196.091 114.462C196.462 114.33 196.799 114.118 197.079 113.842C197.359 113.566 197.574 113.232 197.711 112.864C197.848 112.495 197.902 112.101 197.87 111.709C197.838 111.317 197.721 110.937 197.526 110.596L203.818 103.402L198.896 102.731L193.677 109.665C193.124 110.031 192.726 110.586 192.555 111.225C192.385 111.865 192.456 112.545 192.753 113.136C193.051 113.727 193.555 114.189 194.17 114.433C194.785 114.677 195.469 114.687 196.091 114.462Z" fill="#FFB8B8"/>
<path d="M199.057 109.394C198.838 109.394 198.622 109.34 198.429 109.238L196.215 108.057C196.053 107.97 195.91 107.851 195.796 107.707C195.681 107.562 195.598 107.396 195.551 107.218C195.504 107.04 195.495 106.854 195.523 106.672C195.551 106.49 195.617 106.316 195.715 106.161L203.893 93.2775L205.31 83.5554C205.384 83.0529 205.558 82.5705 205.824 82.1375C206.089 81.7044 206.439 81.3296 206.853 81.0359C207.268 80.7422 207.737 80.5355 208.234 80.4285C208.73 80.3215 209.243 80.3163 209.742 80.4134C210.24 80.5104 210.714 80.7075 211.134 80.9929C211.554 81.2782 211.912 81.6458 212.186 82.0735C212.46 82.5011 212.644 82.9799 212.727 83.4808C212.811 83.9817 212.792 84.4943 212.671 84.9876L209.744 96.9706L200.098 108.898C199.973 109.054 199.814 109.179 199.634 109.265C199.454 109.351 199.257 109.395 199.057 109.394Z" fill="#FF8400"/>
<path d="M211.147 67.5391C211.907 65.0478 216.297 63.9363 219.946 64.97C223.595 66.0036 226.216 68.7138 226.826 71.3635C228.177 77.2311 221.129 81.9933 222.406 87.8616C223.251 91.7441 228.14 95.415 233.645 96.3015C227.578 97.5707 220.172 96.4551 214.546 93.4243C211.044 91.5381 208.106 88.6915 208.151 85.8204C208.178 84.0819 209.284 82.5447 210.636 81.2166C211.989 79.8886 213.608 78.708 214.849 77.3217C216.091 75.9355 216.951 74.2757 216.588 72.5159C216.226 70.7561 214.386 68.921 211.91 68.409L211.147 67.5391Z" fill="#2F2E41"/>
<path d="M207.733 164H105.832C105.761 164 105.693 163.972 105.643 163.922C105.592 163.872 105.564 163.804 105.564 163.733C105.564 163.662 105.592 163.594 105.643 163.544C105.693 163.494 105.761 163.465 105.832 163.465H207.733C207.803 163.465 207.871 163.494 207.922 163.544C207.972 163.594 208 163.662 208 163.733C208 163.804 207.972 163.872 207.922 163.922C207.871 163.972 207.803 164 207.733 164Z" fill="#CCCCCC"/>
</g>
<defs>
<clipPath id="clip0">
<rect width="234" height="164" fill="white"/>
</clipPath>
</defs>
</svg>
